<?xml version="1.0" encoding="utf-8"?>
<!-- Generator: Adobe Illustrator 19.1.1, SVG Export Plug-In . SVG Version: 6.00 Build 0)  -->
<svg version="1.1" id="Layer_1" xmlns="http://www.w3.org/2000/svg" xmlns:xlink="http://www.w3.org/1999/xlink" x="0px" y="0px"
	 viewBox="409 -67.8 960 560" style="enable-background:new 409 -67.8 960 560;" xml:space="preserve">
<style type="text/css">
	.st0{fill:none;stroke:#333333;stroke-width:10;stroke-linecap:round;stroke-linejoin:round;stroke-miterlimit:10;}
	.st1{fill:none;stroke:#F7BC00;stroke-width:10;stroke-linecap:round;stroke-linejoin:round;stroke-miterlimit:10;}
	.st2{fill:#333333;}
	.st3{fill:#F7BC00;}
</style>
<g>
	<path class="st0" d="M903.5-58.3c148.5,0,270.5,122,270.5,270.5s-122,270.5-270.5,270.5s-270.6-122-270.6-270.5"/>
	<g>
		<line class="st1" x1="903.5" y1="231.1" x2="903.5" y2="20.2"/>
		<line class="st1" x1="903.5" y1="231.1" x2="777.5" y2="361"/>
	</g>
	<line class="st0" x1="1037.7" y1="83.2" x2="1054.4" y2="65.8"/>
	<line class="st0" x1="1093" y1="211.9" x2="1120.4" y2="211.9"/>
	<line class="st0" x1="1029.1" y1="340.3" x2="1050.4" y2="359.8"/>
	<line class="st0" x1="903.5" y1="399.4" x2="903.5" y2="429.8"/>
	<line class="st0" x1="632.9" y1="211.9" x2="604" y2="258.2"/>
	<line class="st0" x1="632.9" y1="211.9" x2="669.4" y2="254.5"/>
	<g>
		<path class="st2" d="M835-44.3c-0.3,6.4,0,11.6-0.3,16.4c-1.8,25-8.5,48.7-24.7,68.5c-8.8,10.7-18.9,20.4-28.9,30.1
			c-9.1,9.1-18.6,17.7-28.3,26.2c-2.4,2.1-3,4.3-3,7.3c0.6,7.9,0.9,16.1,1.5,24c0.6,4.6-0.3,8.2-4.3,11.3
			c-6.7,5.2-13.1,11.3-20.4,17.3c-1.8-6.1-3.3-11.6-4.9-16.7c-0.9-3.3-1.8-6.7-2.4-10c-0.9-3.7-3.3-4-6.4-2.7
			c-0.9,0.3-2.1,0.9-3,1.5c-6.4,5.2-12.2,4-17.7-1.2c-6.1-5.8-11.9-11.6-17.7-17.3c-2.1-2.1-2.4-4.6-0.9-7.3c1.2-2.1,1.8-4.6,2.7-7
			c1.8-4.6,0.6-6.7-4.3-7.3c-7.6-1.2-14.9-2.1-22.5-3.3c-0.9,0-1.5-0.3-3-0.9c3-4.3,5.8-8.2,8.5-12.5c2.4-3.7,5.2-7,7.3-10.7
			c1.8-3,4-4,7.3-4c8.8-0.3,18-0.9,26.8-0.9c2.7,0,4-1.2,5.5-3c14.3-18.3,28.3-36.8,42.9-54.8c14.9-18.6,34.7-29.8,57.5-36.2
			C813.4-40.7,824-42.2,835-44.3z M761.6,20.2c0,8.8,6.4,15.8,14.9,15.8c9.7,0,16.1-6.1,16.4-15.8c0.3-8.5-7-16.1-15.8-15.8
			C768.3,5,761.9,9.5,761.6,20.2z"/>
		<path class="st3" d="M646,160.8c1.8-3.3,3.3-7.3,5.5-10.3c6.1-9.4,13.7-17.7,23.1-23.7c2.1-1.5,5.5-4.3,7.6-1.5
			c1.2,1.5,0.6,5.5-0.3,7.9c-6.1,12.2-15.2,22.2-26.8,29.8c-1.2,0.9-2.7,1.5-4,1.8C648.4,165.3,646.6,163.8,646,160.8z"/>
		<path class="st3" d="M673.7,154.7c0.3-0.9,0.9-2.4,1.8-4c4.3-6.7,9.4-13.1,16.4-17c1.5-0.9,3.7-0.6,5.2-0.6c0,1.5,0.3,3.3-0.6,4.6
			c-4.6,8.5-10.7,15.8-19.5,20.1C674.6,159.2,673.4,158,673.7,154.7z"/>
		<path class="st3" d="M675.2,114.8c-0.6,1.5-1.2,2.7-1.8,4c-4.3,7.6-10,14.3-18,18.6c-0.9,0.6-2.4,0.3-3.7,0.6c0-1.5-0.6-3-0.3-4.3
			c4.3-8.8,10.3-15.8,18.9-20.7c0.9-0.6,2.7-0.6,4-0.3C674.6,112.4,674.9,113.9,675.2,114.8z"/>
	</g>
</g>
</svg>
