<?xml version="1.0" encoding="utf-8"?>
<!-- Generator: Adobe Illustrator 19.1.1, SVG Export Plug-In . SVG Version: 6.00 Build 0)  -->
<svg version="1.1" id="Layer_1" xmlns="http://www.w3.org/2000/svg" xmlns:xlink="http://www.w3.org/1999/xlink" x="0px" y="0px"
	 viewBox="409 -67.8 960 560" style="enable-background:new 409 -67.8 960 560;" xml:space="preserve">
<style type="text/css">
	.st0{fill:none;stroke:#333333;stroke-width:10;stroke-linecap:round;stroke-miterlimit:10;}
	.st1{fill:none;stroke:#F7BC00;stroke-width:10;stroke-linecap:round;stroke-miterlimit:10;}
</style>
<g>
	<g>
		<ellipse class="st0" cx="835.8" cy="39.1" rx="256.9" ry="96.9"/>
		<path class="st0" d="M1093,150.9c0,53.6-115.1,96.9-256.9,96.9s-256.9-43.3-256.9-96.9"/>
		<path class="st0" d="M952.5,350.6c-31.1,5-80.7,10.3-116.7,10.3c-141.9,0-256.9-43.3-256.9-96.9"/>
		<path class="st0" d="M973.7,446.5c-39.7,9.6-87,15.2-137.9,15.2c-141.9,0-256.9-43.3-256.9-96.9"/>
		<line class="st0" x1="578.8" y1="39.1" x2="578.8" y2="364.8"/>
		<line class="st0" x1="1093" y1="39.1" x2="1093" y2="240.8"/>
	</g>
	<g>
		<path class="st1" d="M1199.2,381.3c0,55.6-45,100.9-100.9,100.9c-55.9,0-100.9-45-100.9-100.9c0-55.6,45-100.9,100.9-100.9
			c30.8,0,58.5,13.9,77,35.7"/>
		<line class="st1" x1="1175.7" y1="316.5" x2="1179.7" y2="276.5"/>
		<line class="st1" x1="1175.7" y1="316.5" x2="1136.3" y2="321.5"/>
	</g>
</g>
</svg>
