<?xml version="1.0" encoding="utf-8"?>
<!-- Generator: Adobe Illustrator 19.1.1, SVG Export Plug-In . SVG Version: 6.00 Build 0)  -->
<svg version="1.1" id="Layer_1" xmlns="http://www.w3.org/2000/svg" xmlns:xlink="http://www.w3.org/1999/xlink" x="0px" y="0px"
	 viewBox="0 0 960 560" style="enable-background:new 0 0 960 560;" xml:space="preserve">
<style type="text/css">
	.st0{fill:#333333;}
	.st1{fill:#F7BC00;}
</style>
<g>
	<g>
		<path class="st0" d="M287.4,236.4c5.1,0,9.4,1.8,13,5.4c3.6,3.6,5.4,7.9,5.4,12.9c0,5.2-2.6,8.4-7.9,9.7c3.8,0.5,8.1,3.2,12.9,8.1
			c4.8,4.8,7.2,11.5,7.2,20.1c0,8.5-3,15.9-9,22.1c-5.6,5.9-11.3,8.8-17,8.9v0.1h-22.4v-87.2H287.4z M281,247.7v13.8h7.4
			c1.7-0.1,3.1-0.8,4.3-1.9c1.3-1.2,2-2.8,2-4.9c0-2-0.7-3.7-2-5c-1.4-1.3-3.1-2-5.2-2H281z M281,273.1v39.2H292v-0.2
			c2.3-0.1,5.2-2,8.7-5.6c3.8-3.9,5.7-8.6,5.7-14c0-5.3-1.9-9.9-5.7-13.7c-3.8-3.8-8.4-5.7-13.7-5.7H281z"/>
		<path class="st0" d="M343.5,288.6l-30.1-52.2h13l22.8,39.5l12.8-19.4h13l-20.2,32.1v35h-11.3V288.6z"/>
		<path class="st0" d="M406.5,247.7v75.9h-11.3v-75.9h-20.3v-11.3h52v11.3H406.5z"/>
		<path class="st0" d="M484.7,236.4v11.3H449v26.7h35.7v11.3H449v26.7h35.7v11.3h-47v-87.2H484.7z"/>
		<path class="st1" d="M512.7,236.4l28.3,48.9l28.2-48.9h10.3v87.2h-11.3v-63L541,307.7l-27.3-47.1v63h-11.3v-87.2H512.7z"/>
		<path class="st1" d="M645.5,236.4v11.3h-35.7v26.7h35.7v11.3h-35.7v26.7h35.7v11.3h-47v-87.2H645.5z"/>
		<path class="st0" d="M724,247.7v75.9h-11.3v-75.9h-20.3v-11.3h52v11.3H724z"/>
		<path class="st0" d="M802.2,236.4v11.3h-35.7v26.7h35.7v11.3h-35.7v26.7h35.7v11.3h-47v-87.2H802.2z"/>
		<path class="st0" d="M884.7,302.9l8.5,7.6c-10.3,9.4-21.2,14.1-32.8,14.1c-12.3,0-22.8-4.3-31.5-13c-8.7-8.7-13-19.2-13-31.5
			c0-12.3,4.3-22.8,13-31.5c8.7-8.7,19.2-13.1,31.5-13.1c11.5,0,22.4,4.7,32.8,14.1l-8.5,7.7c-7.8-6.9-15.9-10.4-24.3-10.4
			c-9.1,0-16.9,3.2-23.4,9.7c-6.5,6.5-9.7,14.3-9.7,23.4c0,9.2,3.2,17,9.7,23.5c6.5,6.5,14.3,9.7,23.4,9.7
			C868.8,313.2,876.9,309.8,884.7,302.9z"/>
		<path class="st0" d="M918,287.6v36.1h-11.3v-87.2H918v39.9h26.9v-39.9h11.3v87.2h-11.3v-36.1H918z"/>
	</g>
	<g>
		<g>
			<polygon class="st0" points="3.9,354 3.8,299.1 51.3,271.6 98.9,299 99,353.9 51.5,381.5 			"/>
			<polygon class="st0" points="110.7,354 110.6,299.1 158.2,271.6 205.8,299 205.8,353.9 158.3,381.5 			"/>
		</g>
		<g>
			<g>
				<path class="st1" d="M148.4,245.4c-5.5,1-10.8-2.6-11.9-8.1c-0.2-0.9-0.2-1.9-0.1-2.8c-0.7,0.3-1.5,0.5-2.2,0.7
					c-7,1.3-13.8-3.3-15.1-10.3c-1-5.4,1.4-10.6,5.8-13.3c-5.3-0.6-9.8-4.6-10.9-10.2c-1.1-5.7,1.9-11.3,6.9-13.7l-16.1-9.2
					l-47.5,27.5l0.1,54.9l47.6,27.4l47.5-27.5l0-17.2C151.2,244.5,149.9,245.1,148.4,245.4z"/>
			</g>
			<path class="st0" d="M104.7,182l10.5,6.1c-3.6,3.6-5.3,8.8-4.3,14c0.9,4.8,3.9,8.7,8.1,10.9c-2.7,3.5-3.8,8.1-2.9,12.6
				c1.4,7.5,8,12.9,15.6,12.9c0.7,0,1.3,0,2-0.1c1.3,6,6.7,10.3,12.8,10.3c0.8,0,1.7-0.1,2.5-0.2c0.2,0,0.3-0.1,0.5-0.1l0,10.9
				L104.9,285l-44.6-25.7l-0.1-51.5L104.7,182 M104.7,178.5l-47.5,27.5l0.1,54.9l47.6,27.4l47.5-27.5l0-17.2c-1.2,0.8-2.5,1.5-4,1.8
				c-0.6,0.1-1.3,0.2-1.9,0.2c-4.8,0-9-3.4-10-8.2c-0.2-0.9-0.2-1.9-0.1-2.8c-0.7,0.3-1.5,0.5-2.2,0.7c-0.8,0.2-1.6,0.2-2.4,0.2
				c-6.1,0-11.5-4.3-12.7-10.5c-1-5.4,1.4-10.6,5.8-13.3c-5.3-0.6-9.8-4.6-10.9-10.2c-1.1-5.7,1.9-11.3,6.9-13.7L104.7,178.5
				L104.7,178.5z"/>
		</g>
	</g>
</g>
</svg>
