<?xml version="1.0" encoding="utf-8"?>
<!-- Generator: Adobe Illustrator 19.1.1, SVG Export Plug-In . SVG Version: 6.00 Build 0)  -->
<svg version="1.1" id="Layer_1" xmlns="http://www.w3.org/2000/svg" xmlns:xlink="http://www.w3.org/1999/xlink" x="0px" y="0px"
	 viewBox="409 -67.8 960 560" style="enable-background:new 409 -67.8 960 560;" xml:space="preserve">
<style type="text/css">
	.st0{fill:#333333;}
	.st1{fill:#F7BC00;}
</style>
<g>
	<path class="st0" d="M884.9-51.8c2.8,0,5.6,0,8.2,0c0.8,0.6,1.7,1.1,2.5,1.4c35.8,13,71.6,25.9,107.5,38.9
		c34.7,12.7,69.4,25.1,104.1,37.8c7.1,2.5,11.3,7.3,12.1,14.9c0.6,7.3,1.4,14.7,2,22c4.5,53.6,4.2,106.9-4.5,159.9
		c-7.3,44.8-20.3,87.7-43.2,126.9c-36.1,61.5-87.4,103.2-157.1,121.6c-7.1,2-14.4,3.1-21.4,4.5c-4.2,0-8.2,0-12.4,0
		c-0.8-0.3-1.4-0.8-2.3-0.8c-32.7-4.8-62.9-16.6-90.8-34.7c-51.3-33-85.5-79.8-107.2-136.2c-15.8-40.9-23.7-83.5-26.8-126.9
		c-3.4-45.1-1.7-90.3,2.8-135.4c0.8-8.5,5.4-13.5,13.3-16.6c55.6-20,111.1-40.1,166.4-60.4C853.9-40.2,869.4-45.9,884.9-51.8z
		 M685.8,131.5c1.7,22,3.1,49.1,6.5,76.2c5.1,41.2,16.1,80.7,35.8,117.6c28.2,53,69.7,91.1,126.9,110.6c17.5,5.9,34.7,9.6,53.3,4.2
		c60.9-16.6,106.3-53,137.6-107.5c27.1-47.1,38.4-98.4,43.2-152c3.7-40.6,2.3-81.5-1.1-122.1c-0.3-3.4-1.4-4.8-4.5-5.9
		C1019.7,29.4,956,6.3,892.3-16.8c-2-0.6-4.5-0.8-6.2,0c-64,23.1-127.8,46.3-191.8,69.4c-2.8,1.1-4.2,2.3-4.2,5.4
		C688.9,81,687.5,103.6,685.8,131.5z"/>
	<path class="st1" d="M990.1,236.2c-6.8-4.5-13.5-8.7-20.3-13.3c-1.1-0.8-1.4-1.4-1.4-2.8c0.3-5.6,0-11.6,0-17.2
		c0-1.4,0.3-2,1.4-2.8c6.8-3.9,13.5-7.9,20.6-11.8c1.7-0.8,1.7-2,1.1-3.7c-1.1-3.7-2.3-7.1-3.4-10.7c-0.6-1.4-1.1-2.3-2.8-2
		c-7.9,0.6-16.1,0.8-24,1.4c-1.1,0-2.3,0.3-3.1-1.1c-3.1-4.8-6.5-9.3-10.2-13.8c-1.1-1.4-1.1-2.3-0.3-3.7c3.4-7.3,6.5-14.7,9.6-21.7
		c0.6-1.4,0.3-2-0.8-2.8c-3.4-2.3-6.5-4.8-9.6-7.1c-1.1-0.8-2.3-0.8-3.4,0c-6.2,5.1-12.7,10.4-18.9,15.5c-1.1,0.8-1.7,1.1-3.1,0.6
		c-5.4-2-11-3.7-16.6-5.4c-1.4-0.3-1.7-0.8-2-2.3c-1.4-7.9-3.4-15.8-4.8-23.7c-0.3-1.4-0.8-2-2.3-2c-3.9,0-8.2,0-12.1,0
		c-1.4,0-2,0.6-2.5,2c-2,7.9-4.2,15.5-6.2,23.4c-0.3,1.4-0.8,2.3-2.5,2.8c-5.4,1.7-10.7,3.4-15.8,5.4c-1.4,0.6-2.3,0.6-3.4-0.6
		c-6.2-5.9-12.4-11.6-18.9-17.5c-4.2,3.1-7.9,5.9-11.6,8.5c-1.1,0.8-1.7,2-1.1,3.4c2.8,7.6,5.6,15.2,8.7,22.8c0.6,1.1,0.3,2-0.3,3.1
		c-3.4,4.5-6.8,9.3-10.2,14.1c-0.8,1.1-1.4,1.4-2.8,1.4c-7.9-0.8-15.8-1.7-23.7-2.5c-1.7-0.3-2.3,0.6-2.8,2
		c-1.1,3.7-2.3,7.6-3.7,11.3c-0.6,1.4-0.3,2.3,0.8,2.8c6.8,4.5,13.5,9,20.3,13.3c1.1,0.8,1.7,1.4,1.7,3.1c-0.3,5.6,0,11.3,0,16.9
		c0,1.4-0.3,2.3-1.7,3.1c-7.1,3.9-13.8,8.2-20.6,12.1c-1.4,0.8-1.7,1.7-1.1,3.1c1.1,3.7,2.5,7.3,3.7,11.3c0.6,1.4,1.1,2,2.8,2
		c7.9-0.6,16.1-0.8,24-1.4c1.7,0,2.3,0.3,3.4,1.7c3.1,4.5,6.5,9,9.6,13.3c1.1,1.4,1.1,2.3,0.6,3.7c-3.4,7.3-6.5,14.7-9.6,21.7
		c-0.6,1.1-0.6,1.7,0.6,2.5c3.4,2.3,6.8,4.8,9.9,7.3c1.1,0.8,2,0.8,3.4,0c6.2-5.4,12.7-10.4,18.9-15.5c1.1-0.8,1.7-1.1,3.1-0.6
		c5.4,2,10.7,3.7,16.4,5.1c1.4,0.3,1.7,0.8,2,2.3c1.7,7.9,3.4,15.8,5.1,23.7c0.3,1.1,0.8,1.7,2,1.7c3.9,0,7.9,0,11.8,0
		c1.7,0,2.5-0.6,3.1-2.3c2-7.9,4.2-15.5,6.2-23.4c0.3-1.4,0.8-2,2.3-2.5c5.4-1.7,10.7-3.4,16.1-5.4c1.4-0.6,2.3-0.3,3.4,0.8
		c5.9,5.4,11.8,10.7,17.8,16.1c0.8,0.8,1.7,0.8,2.8,0c3.4-2.5,6.5-4.8,9.9-7.1c1.1-0.8,1.4-1.7,0.8-3.1c-2.8-7.6-5.9-15.5-8.7-23.1
		c-0.6-1.1-0.3-1.7,0.3-2.8c3.4-4.5,6.8-9.3,10.2-14.1c0.8-1.4,1.7-1.7,3.1-1.4c7.9,0.8,15.5,1.7,23.4,2.5c1.4,0.3,2.3-0.3,2.8-2
		c1.1-3.7,2.3-7.3,3.7-11C991.5,238.1,991.5,237,990.1,236.2z M889.2,259.6c-26.2,0-47.4-21.2-47.4-47.4s21.2-47.4,47.4-47.4
		s47.4,21.2,47.4,47.4S915.4,259.6,889.2,259.6z"/>
</g>
</svg>
